<?xml version="1.0" encoding="UTF-8" standalone="no"?>
<svg
   width="360"
   height="286"
   viewBox="0 0 360 286"
   version="1.1"
   id="svg26"
   sodipodi:docname="giab_logos_font_path_opt_light.svg"
   inkscape:version="1.1 (c68e22c387, 2021-05-23)"
   xmlns:inkscape="http://www.inkscape.org/namespaces/inkscape"
   xmlns:sodipodi="http://sodipodi.sourceforge.net/DTD/sodipodi-0.dtd"
   xmlns="http://www.w3.org/2000/svg"
   xmlns:svg="http://www.w3.org/2000/svg">
  <defs
     id="defs30" />
  <sodipodi:namedview
     id="namedview28"
     pagecolor="#ffffff"
     bordercolor="#666666"
     borderopacity="1.0"
     inkscape:pageshadow="2"
     inkscape:pageopacity="0.0"
     inkscape:pagecheckerboard="0"
     showgrid="false"
     inkscape:zoom="2.6328671"
     inkscape:cx="179.84197"
     inkscape:cy="143"
     inkscape:window-width="1920"
     inkscape:window-height="1017"
     inkscape:window-x="1912"
     inkscape:window-y="108"
     inkscape:window-maximized="1"
     inkscape:current-layer="svg26" />
  <g
     style="display:inline"
     id="g24">
    <g
       style="font-size:128px;line-height:.68;fill:#094f09"
       id="g4">
      <path
         d="M186.567 57.377q-1.32 2.356-1.98 5.09-.66 2.639-.66 6.126 0 9.614 2.546 20.36l-1.603.848q-.848-.943-2.921-2.357-2.074-1.508-3.3-1.602-2.639 0-8.294 2.356-5.655 2.263-8.389 2.263-10.18 0-17.437-10.369-6.41-9.237-6.41-20.076 0-1.791 1.037-5.656 1.037-3.958 1.791-5.56 3.393-8.578 9.803-13.762 7.069-5.467 15.835-5.467l8.954.189h8.954v3.487q0 1.602-2.45 6.22-2.357 4.62-3.676 6.222-3.865 4.713-14.044 4.713l1.036-3.582q.849-1.98 1.697-3.205 2.356 0 5.75-3.393 0-3.488-6.033-3.488-16.212 0-16.212 27.523 0 3.488.66 6.221.66 2.734 2.356 5.75 3.77 6.315 9.709 6.315 4.995 0 8.2-3.676 3.299-3.77 3.299-9.049 0-2.922-1.602-5.372-1.885-2.828-4.619-2.828-1.414 0-3.487 2.45l.282 4.525q-1.225.943-3.204 3.488h-2.262q-2.168-3.205-2.168-6.504 0-4.43 3.204-7.54 3.394-2.923 7.918-2.923 1.037 0 2.45.283 1.414.283 3.488 1.037 4.147 1.32 5.844 1.32 1.037 0 2.262-.754l2.074-1.226zm31.387 32.141.095-26.298q0-3.298-2.168-5.184-2.168-1.979-5.467-1.979-1.037 0-2.262.283-1.131.283-2.64 1.037-3.016 1.32-3.581 3.11-.094.471-.094 1.602v2.168q0 1.037.094 2.262l.283 6.221q0 2.734-.189 9.332-.188 6.598-.188 7.446h-10.369l4.713-30.728q.283-1.885-2.828-13.29-1.602-5.75-2.262-9.048-.66-3.394-.66-4.996 2.168 0 6.127-4.807l4.996-6.88v30.444l1.225.943h.848q5.279-3.394 8.955-3.394 9.614 0 15.835 10.18-4.242 11.782-4.242 13.29 0 2.262 2.168 9.049 1.885 6.032 3.205 9.237zm34.592 1.037q-8.294 0-13.95-6.315-5.56-6.316-5.56-14.704 0-9.709 6.22-15.835 6.315-6.127 16.024-6.127 5.844 0 11.782 8.2 2.733 3.77 4.147 7.446 1.414 3.676 1.414 7.164 0 8.672-5.656 14.421-5.56 5.75-14.42 5.75zm-.188-35.44q-5.09 0-7.447 5.466-1.885 4.053-1.885 9.803 0 4.901 2.545 8.766 2.64 3.864 7.258 3.864 9.237 0 9.237-13.101 0-14.799-9.708-14.799zm45.525 36.005-21.679-2.733 4.43-13.007q.849 1.036 1.886 1.979 1.036.942 3.11 2.545 5.561 2.922 11.217 2.922 3.581 0 5.278-3.676 0-3.205-6.41-4.902-10.085-2.639-11.876-3.487-6.41-3.393-6.41-10.934 0-3.77 2.828-8.012 2.922-4.335 6.975-4.335l21.68 1.885q-.66 1.508-1.886 4.901-2.45 6.787-2.545 6.975-2.262-2.45-5.655-4.618-3.959-2.545-6.787-2.545-1.979 0-4.053 1.413-2.073 1.32-2.544 3.017 1.508 3.581 8.2 4.524 6.692.943 8.294 1.697 5.373 2.45 8.39 11.028.847 2.544.847 3.487 0 4.901-4.147 8.766-3.487 3.205-7.917 3.205-.754 0-1.226-.095zm30.257-.66q-3.394 0-8.107-3.77-4.618-3.77-4.618-6.88 0-2.545 2.356-8.106 2.451-5.656 2.451-8.295 0-2.922-4.619-17.437 2.922-1.131 6.127-6.41 2.262-3.77 3.865-8.389l-.095 5.75q0 8.577 1.414 12.253 3.582 0 9.52 1.037v5.75q-2.262.848-4.43.848l-1.885-.188-1.791-.189q-2.64 0-2.64 9.143l.095 3.582.094 2.262q0 4.807.849 6.786 1.414 3.016 5.75 3.016 1.696 0 3.77-.942 2.168-.943 2.545-2.45.377.282.565.47.754.66 1.508 1.697l1.885 2.828q-.942 3.864-5.938 6.032-4.053 1.603-8.671 1.603zm-144.165 36.739q-1.885 0-4.147-2.262-2.074-2.357-2.074-4.43 0-3.394 1.414-6.127 1.79-3.205 4.995-3.205 2.451 0 4.43 2.64 1.603 2.356 1.603 4.995 0 2.545-1.697 5.372-1.98 3.017-4.524 3.017zm-5.561 51.464q1.508-7.447 2.356-13.008.849-5.56.849-8.2 0-4.053-3.205-18.569h11.122l-1.697 9.52q-.47 2.451-.754 4.996-.282 2.545-.282 4.524 0 1.98.282 4.43.283 2.357 1.037 5.656l2.45 9.99q-1.413.284-4.146.472-2.64.189-6.693.189zm42.321-.472.471-25.166q0-8.012-7.635-8.012-4.524 0-8.483 5.373l-.471 27.805h-10.745q5.938-15.552 5.938-20.076 0-1.226-5.09-19.511h5.09l5.09-.095v.66q0 1.508.848 3.11 1.414-1.79 4.807-3.864 3.3-1.79 5.655-1.79 7.541 0 14.893 10.273-4.147 11.688-4.336 13.008 0 2.356 5.184 18.285zm72.105.377q-.188-1.508-1.225-4.618-3.676 3.676-5.655 4.807-2.734 1.602-7.258 1.602-4.807 0-9.425-3.959-4.525-4.053-4.525-8.86 0-2.262 2.64-5.938 2.733-3.77 4.995-4.901 3.959-1.791 9.331-2.734l9.52-1.225 1.131-1.602q-1.32-7.164-6.315-7.164-10.65 0-14.044 9.143-1.414-1.32-3.205-3.864l-2.922-4.148q3.017-3.487 8.39-5.938 5.372-2.545 9.802-2.545 5.184 0 10.556 2.922 5.467 2.828 8.672 7.258l-2.828 6.975q-1.979 4.996-1.979 6.41 0 3.298 5.467 17.343-2.545 0-4.713.188-2.168.189-6.41.848zm-.565-18.85h-7.446q-2.262 0-5.75 2.355-3.393 2.263-3.393 4.619l.283 2.168.283 2.168q1.32 0 2.827.471l2.828.471q2.45 0 10.368-4.712zm-109.761 89.521q0 2.168-1.602 5.09-6.692 12.724-22.716 12.724h-25.355l5.938-30.727-6.598-29.408 12.254-.189 12.441-.188q2.451 0 4.336.094 1.885.094 4.242.565 2.356.377 7.446 4.242 5.655 4.241 5.655 7.258 0 4.335-6.22 8.483l-9.709 5.655q6.692 0 13.29 4.901 6.598 4.808 6.598 11.5zm-13.29-.66q0-3.959-1.79-6.975-2.169-3.676-5.75-3.676-2.263 0-4.336 1.414-1.98 1.32-1.98 3.487l.189 1.226.283 1.036q-.095.283-.283.566-.094.283-.66.943l-3.582-1.603q-2.262-.942-3.299-2.168l-.094-.848q0-2.545 1.037-4.807 1.037-2.357 3.393-4.524l8.86-6.504q4.713-3.582 4.713-6.504 0-1.98-1.225-3.77-1.226-1.79-3.11-1.79h-15.082v45.713h13.762q3.77 0 6.598-3.77 2.356-3.582 2.356-7.446zm36.571 19.322q-8.294 0-13.95-6.315-5.56-6.315-5.56-14.704 0-9.708 6.22-15.835 6.315-6.126 16.024-6.126 5.844 0 11.782 8.2 2.733 3.77 4.147 7.446 1.414 3.676 1.414 7.164 0 8.671-5.655 14.42-5.562 5.75-14.422 5.75zm-.188-35.44q-5.09 0-7.446 5.467-1.885 4.053-1.885 9.803 0 4.9 2.544 8.765 2.64 3.865 7.258 3.865 9.237 0 9.237-13.102 0-14.798-9.708-14.798zm37.043 35.346q-3.394 0-8.107-3.77-4.618-3.77-4.618-6.88 0-2.546 2.356-8.107 2.45-5.655 2.45-8.294 0-2.922-4.618-17.438 2.922-1.13 6.127-6.41 2.262-3.77 3.864-8.388l-.094 5.75q0 8.577 1.414 12.253 3.582 0 9.52 1.037v5.75q-2.262.848-4.43.848l-1.885-.189-1.791-.188q-2.64 0-2.64 9.143l.095 3.581.094 2.262q0 4.807.849 6.787 1.413 3.016 5.75 3.016 1.696 0 3.77-.942 2.167-.943 2.544-2.451.377.283.566.471.754.66 1.508 1.697l1.885 2.827q-.942 3.865-5.938 6.033-4.053 1.602-8.672 1.602zm31.292 0q-3.393 0-8.106-3.77-4.618-3.77-4.618-6.88 0-2.546 2.356-8.107 2.45-5.655 2.45-8.294 0-2.922-4.618-17.438 2.922-1.13 6.127-6.41 2.262-3.77 3.864-8.388l-.094 5.75q0 8.577 1.414 12.253 3.582 0 9.52 1.037v5.75q-2.262.848-4.43.848l-1.885-.189-1.791-.188q-2.64 0-2.64 9.143l.095 3.581.094 2.262q0 4.807.848 6.787 1.414 3.016 5.75 3.016 1.697 0 3.77-.942 2.168-.943 2.545-2.451.377.283.566.471.754.66 1.508 1.697l1.885 2.827q-.943 3.865-5.938 6.033-4.053 1.602-8.672 1.602zm19.228-.754q4.62-26.015 4.62-31.104 0-5.656-1.886-13.196l-3.299-12.913q6.786-3.582 11.31-12.16v69.373zm36.1 1.225q-8.483 0-14.61-6.597-6.126-6.598-6.126-15.27 0-12.63 13.384-19.134 4.054-1.885 6.221-1.885 6.41 0 11.688 4.713 4.619 4.053 7.258 10.65v2.546l-3.582 2.827q-2.828 2.262-3.393 2.262h-12.442q-1.131 0-3.582 3.96-1.696-2.074-2.922-5.562 2.168-3.582 7.258-4.996l8.86-1.696q-2.168-8.106-8.2-8.106-5.373 0-7.918 4.807-2.073 3.864-2.073 9.614 0 14.327 10.745 14.327 5.373 0 7.258-2.168l2.45-4.147q2.168-2.168 8.295-2.168-5.938 16.023-18.569 16.023z"
         style="font-family:Ghostly;-inkscape-font-specification:'Ghostly, Normal';text-align:center;text-anchor:middle;fill:#60af17;fill-opacity:1"
         aria-label="Ghost in[a Bottle"
         id="path2" />
    </g>
    <path
       style="fill:#60af17"
       d="M49.524 273.733v-1h-4v-2h-3.052l-4.474-4.473-4.474-4.474v-3.053h-2v-6h-2v-6h-2v-98h2v-16h2v-10h2v-6h2v-6h2v-6h2v-6h2v-4h2v-4h2v-6h2v-6h2v-6h2v-10h2V51.174l-2-1.44-2-1.442V36.733h2V33.59l1.429-1.428 1.429-1.429h3.142v-6h-2V13.59l1.429-1.428 1.429-1.429h24.285l1.429 1.429 1.428 1.428v11.143h-2v5.559l2 1.441 2 1.442v3.559h2v11.558l-2 1.441-2 1.442v11.559h2v10h2v6h2v6h2v6h2v4h2v4h2v6h2v6h2v6h2v6h2v10h2v16h2v98h-2v6h-2v6h-2v3.052l-4.473 4.474-4.474 4.473h-3.053v2h-4v2h-40z"
       id="path6" />
    <path
       style="fill:#4b3657"
       d="M49.524 273.733v-1h-4v-2h-3.052l-4.474-4.473-4.474-4.474v-3.053h-2v-6h-2v-6h-2v-98h2v-16h2v-10h2v-6h2v-6h2v-6h2v-6h2v-4h2v-4h2v-6h2v-6h2v-6h2v-10h2V51.174l-2-1.44-2-1.442V36.733h2V33.59l1.429-1.428 1.429-1.429h3.142v-6h-2V13.59l1.429-1.428 1.429-1.429h24.285l1.429 1.429 1.428 1.428v11.143h-2v5.559l2 1.441 2 1.442v3.559h2v11.558l-2 1.441-2 1.442v11.559h2v10h2v6h2v6h2v6h2v4h2v4h2v6h2v6h2v6h2v6h2v10h2v16h2v98h-2v6h-2v6h-2v3.052l-4.473 4.474-4.474 4.473h-3.053v2h-4v2h-40zm22-37v-2h2v-3.559l2-1.44 2-1.442v-3.559h2v-10h2v-6h2v-6h2v-6h2v-8h2v-6h2v-6h2v-6h2v-6h2v-12h-2v-8h-2v-4h-2v-3.091l-2.454-2.454-2.455-2.455h-3.091v-2h-4v-2h-4v-2h-14v2h-4v2h-4v2h-3.091l-2.454 2.455-2.455 2.454v3.091h-2v4h-2v8h-2v16h2v6h2v6h2v6h2v6h2v8h2v3.559l2 1.441 2 1.442v3.117l2 1.441 2 1.442v2.756l3 2.802 3 2.803v3.198h2v6h2v8h2zm-10.75-57.496-1.25-1.42v-2.175l2.455-2.454 2.454-2.455h3.091v-2h6v2h3.143l1.429 1.429 1.428 1.428v4.286l-1.428 1.429-1.429 1.428h-2.701l-1.442-2-1.441-2h-3.117l-1.442 2-1.441 2-1.53-.038-1.529-.038-1.25-1.42zm-5.25-17.504v-1h-5.142l-1.429-1.428-1.429-1.429v-6.195l4.474-4.474 4.474-4.474h5.052v2h3.143l1.429 1.429 1.428 1.428v7.143h-2v3.091l-2.454 2.455-2.455 2.454h-5.091Zm18.25-1.525-2.25-2.403v-3.072h-2v-6h2v-4h10v2h3.091l2.455 2.455 2.454 2.454v6.234l-1.428 1.429-1.429 1.428h-5.143v2l-2.75-.06-2.75-.062-2.25-2.403z"
       id="path8" />
    <path
       style="fill:#259609"
       d="M49.524 273.733v-1h-4v-2h-3.052l-4.474-4.473-4.474-4.474v-3.053h-2v-6h-2v-6h-2v-98h2v-16h2v-10h2v-6h2v-6h2v-6h2v-6h2v-4h2v-4h2v-6h2v-6h2v-6h2v-10h2V51.174l-2-1.44-2-1.442V36.733h2V33.59l1.429-1.428 1.429-1.429h3.142v-6h-2V13.59l1.429-1.428 1.429-1.429h24.285l1.429 1.429 1.428 1.428v11.143h-2v5.559l2 1.441 2 1.442v3.559h2v11.558l-2 1.441-2 1.442v11.559h2v10h2v6h2v6h2v6h2v4h2v4h2v6h2v6h2v6h2v6h2v10h2v16h2v98h-2v6h-2v6h-2v3.052l-4.473 4.474-4.474 4.473h-3.053v2h-4v2h-40zm22-37v-2h2v-3.559l2-1.44 2-1.442v-3.559h2v-10h2v-6h2v-6h2v-6h2v-8h2v-6h2v-6h2v-6h2v-6h2v-12h-2v-8h-2v-4h-2v-3.091l-2.454-2.454-2.455-2.455h-3.091v-2h-4v-2h-4v-2h-14v2h-4v2h-4v2h-3.091l-2.454 2.455-2.455 2.454v3.091h-2v4h-2v8h-2v16h2v6h2v6h2v6h2v6h2v8h2v3.559l2 1.441 2 1.442v3.117l2 1.441 2 1.442v2.756l3 2.802 3 2.803v3.198h2v6h2v8h2zm-10.75-57.496-1.25-1.42v-2.175l2.455-2.454 2.454-2.455h3.091v-2h6v2h3.143l1.429 1.429 1.428 1.428v4.286l-1.428 1.429-1.429 1.428h-2.701l-1.442-2-1.441-2h-3.117l-1.442 2-1.441 2-1.53-.038-1.529-.038-1.25-1.42zm-5.25-17.504v-1h-5.142l-1.429-1.428-1.429-1.429v-6.195l4.474-4.474 4.474-4.474h5.052v2h3.143l1.429 1.429 1.428 1.428v7.143h-2v3.091l-2.454 2.455-2.455 2.454h-5.091Zm18.25-1.525-2.25-2.403v-3.072h-2v-6h2v-4h10v2h3.091l2.455 2.455 2.454 2.454v6.234l-1.428 1.429-1.429 1.428h-5.143v2l-2.75-.06-2.75-.062-2.25-2.403zm.09-132.725.508-1.25 1.022 1.471 1.022 1.471.804-.858.804-.858-1.25-.446-1.25-.446v-3.834h2v-8h-10v4h4v2h-4v1.834l1.25.507 1.25.507-1.47 1.022-1.472 1.022.858.804.858.804.447-1.25.446-1.25h3.833v2h-2v2h1.834zm-8.34-9.75v-1h-2v2h2z"
       id="path10" />
    <path
       style="fill:#702514"
       d="M49.524 273.733v-1h-4v-2h-3.052l-4.474-4.473-4.474-4.474v-3.053h-2v-6h-2v-6h-2v-98h2v-16h2v-10h2v-6h2v-6h2v-6h2v-6h2v-4h2v-4h2v-6h2v-6h2v-6h2v-10h2V51.174l-2-1.44-2-1.442V36.733h2V33.59l1.429-1.428 1.429-1.429h3.142v-6h-2V13.59l1.429-1.428 1.429-1.429h24.285l1.429 1.429 1.428 1.428v11.143h-2v5.559l2 1.441 2 1.442v3.559h2v11.558l-2 1.441-2 1.442v11.559h2v10h2v6h2v6h2v6h2v4h2v4h2v6h2v6h2v6h2v6h2v10h2v16h2v98h-2v6h-2v6h-2v3.052l-4.473 4.474-4.474 4.473h-3.053v2h-4v2h-40zm36-2v-1h-32v2h32zm-36-2v-1h-3.066l-3.467-3.466-3.467-3.467v-3.067h-2v-4h-2v-6h-2v-100h2v-18h2v-8h2v-8h2v-6h2v-4h2v-6h2v-4h2v-6h2v-6h2v-4h-2v4h-2v6h-2v6h-2v4h-2v6h-2v4h-2v6h-2v8h-2v8h-2v18h-2v100h2v6h2v4h2v3.047l4.25 4.404 4.25 4.404 1.75.073 1.75.072zm48.534-4.466 3.466-3.467v-3.067h2v-4h2v-6h2v-100h-2v-18h-2v-8h-2v-8h-2v-6h-2v-4h-2v-6h-2v-4h-2v-6h-2v-6h-2v-4h-2v4h2v6h2v6h2v4h2v6h2v4h2v6h2v8h2v8h2v18h2v98h-2v8h-2v4h-2v3.198l-3 2.802-3 2.803v1.198h1.067zm-27.962-17.962 1.428-1.429v-4.701l2-1.442 2-1.441v-3.559h2v-6h2v-8h2v-8h2v-6h2v-6h2v-8h2v-6h2v-6h2v-6h2v-6h2v-20h-2v-6h-2v-4h-2v-3.143l-1.428-1.428-1.429-1.429h-3.143v-2h-4v-2h-4v-2h-18v2h-4v2h-4v2h-3.142l-1.429 1.429-1.429 1.428v3.143h-2v4h-2v6h-2v24h2v6h2v4h2v6h2v8h2v6h2v3.559l2 1.441 2 1.442v3.117l2 1.441 2 1.442v3.117l2 1.441 2 1.442v3.559h2v8h2v16h1.143zm-8.572-70.117v-1.546l2.455-2.454 2.454-2.455h8.234l1.429 1.429 1.428 1.428v5.143h-4v-2h-8v2h-4zm-10.75-17.95-1.25-1.42v-6.151l3.467-3.467 3.467-3.467h6.209l1.429 1.429 1.428 1.428v8.234l-2.454 2.455-2.455 2.454-4.295-.038-4.296-.038-1.25-1.42zm23-1.03-2.25-2.403v-8.215l1.429-1.428 1.429-1.429h5.142v2h3.091l2.455 2.455 2.454 2.454v6.234l-1.428 1.429-1.429 1.428-4.321-.06-4.322-.062zm-18.25-83.475v-2h-2v4h2zm30 0v-2h-2v4h2zm-28-9v-5h-2v10h2zm26 0v-5h-2v10h2zm-26-22v-5h2v-4h-3.142l-1.429 1.429-1.429 1.428v7.143h2v4h2zm20.572-6.428 1.428-1.429v-1.143h-6v1.085l1.25 1.42 1.25 1.42.322.037.321.038zm-4.231-9.822.507-1.25 1.022 1.471 1.022 1.471.804-.858.804-.858-1.25-.446-1.25-.446v-3.834h2v-8h-10v4h4v2h-4v1.834l1.25.507 1.25.507-1.47 1.022-1.472 1.022.858.804.858.804.447-1.25.446-1.25h3.833v2h-2v2h1.834zm-8.34-9.75v-1h-2v2h2z"
       id="path12" />
    <path
       style="fill:#096a09"
       d="M49.524 273.733v-1h-4v-2h-3.052l-4.474-4.473-4.474-4.474v-3.053h-2v-6h-2v-6h-2v-98h2v-16h2v-10h2v-6h2v-6h2v-6h2v-6h2v-4h2v-4h2v-6h2v-6h2v-6h2v-10h2V51.174l-2-1.44-2-1.442V36.733h2V33.59l1.429-1.428 1.429-1.429h3.142v-6h-2V13.59l1.429-1.428 1.429-1.429h24.285l1.429 1.429 1.428 1.428v11.143h-2v5.559l2 1.441 2 1.442v3.559h2v11.558l-2 1.441-2 1.442v11.559h2v10h2v6h2v6h2v6h2v4h2v4h2v6h2v6h2v6h2v6h2v10h2v16h2v98h-2v6h-2v6h-2v3.052l-4.473 4.474-4.474 4.473h-3.053v2h-4v2h-40zm36-2v-1h-32v2h32zm-36-2v-1h-3.066l-3.467-3.466-3.467-3.467v-3.067h-2v-4h-2v-6h-2v-100h2v-18h2v-8h2v-8h2v-6h2v-4h2v-6h2v-4h2v-6h2v-6h2v-4h-2v4h-2v6h-2v6h-2v4h-2v6h-2v4h-2v6h-2v8h-2v8h-2v18h-2v100h2v6h2v4h2v3.047l4.25 4.404 4.25 4.404 1.75.073 1.75.072zm48.534-4.466 3.466-3.467v-3.067h2v-4h2v-6h2v-100h-2v-18h-2v-8h-2v-8h-2v-6h-2v-4h-2v-6h-2v-4h-2v-6h-2v-6h-2v-4h-2v4h2v6h2v6h2v4h2v6h2v4h2v6h2v8h2v8h2v18h2v98h-2v8h-2v4h-2v3.198l-3 2.802-3 2.803v1.198h1.067zm-27.962-17.962 1.428-1.429v-4.701l2-1.442 2-1.441v-3.559h2v-6h2v-8h2v-8h2v-6h2v-6h2v-8h2v-6h2v-6h2v-6h2v-6h2v-20h-2v-6h-2v-4h-2v-3.143l-1.428-1.428-1.429-1.429h-3.143v-2h-4v-2h-4v-2h-18v2h-4v2h-4v2h-3.142l-1.429 1.429-1.429 1.428v3.143h-2v4h-2v6h-2v24h2v6h2v4h2v6h2v8h2v6h2v3.559l2 1.441 2 1.442v3.117l2 1.441 2 1.442v3.117l2 1.441 2 1.442v3.559h2v8h2v16h1.143zm-8.572-70.117v-1.546l2.455-2.454 2.454-2.455h8.234l1.429 1.429 1.428 1.428v5.143h-4v-2h-8v2h-4zm-10.75-17.95-1.25-1.42v-6.151l3.467-3.467 3.467-3.467h6.209l1.429 1.429 1.428 1.428v8.234l-2.454 2.455-2.455 2.454-4.295-.038-4.296-.038-1.25-1.42zm23-1.03-2.25-2.403v-8.215l1.429-1.428 1.429-1.429h5.142v2h3.091l2.455 2.455 2.454 2.454v6.234l-1.428 1.429-1.429 1.428-4.321-.06-4.322-.062zm-18.25-83.475v-2h-2v4h2zm30 0v-2h-2v4h2zm-28-9v-5h-2v10h2zm26 0v-5h-2v10h2zm-26-22v-5h2v-4h-3.142l-1.429 1.429-1.429 1.428v7.143h2v4h2zm20.572-6.428 1.428-1.429v-1.143h-6v1.085l1.25 1.42 1.25 1.42.322.037.321.038zM61.524 26.733v-2h1.559l1.441 2 1.442 2h12.701l1.429-1.428 1.428-1.429V17.59l-1.428-1.428-1.429-1.429H62.382l-1.429 1.429-1.429 1.428v11.143h2zm0-5v-1h2v2h-2z"
       id="path14" />
    <path
       style="fill:#4f0018"
       d="M49.524 273.733v-1h-4v-2h-3.052l-4.474-4.473-4.474-4.474v-3.053h-2v-6h-2v-6h-2v-98h2v-16h2v-10h2v-6h2v-6h2v-6h2v-6h2v-4h2v-4h2v-6h2v-6h2v-6h2v-10h2V51.174l-2-1.44-2-1.442V36.733h2V33.59l1.429-1.428 1.429-1.429h3.142v-6h-2V13.59l1.429-1.428 1.429-1.429h24.285l1.429 1.429 1.428 1.428v11.143h-2v5.559l2 1.441 2 1.442v3.559h2v11.558l-2 1.441-2 1.442v11.559h2v10h2v6h2v6h2v6h2v4h2v4h2v6h2v6h2v6h2v6h2v10h2v16h2v98h-2v6h-2v6h-2v3.052l-4.473 4.474-4.474 4.473h-3.053v2h-4v2h-40zm38-2v-1h4v-2h-8v2h-30v-2h-5.559l-1.44-2-1.442-2h-2.701l-1.429-1.428-1.429-1.429v-3.143h-2v-4h-2v-6h2v6h2v4h2v4h5.143l1.67-1.67 1.67-1.669-1.242-.414-1.24-.413v-7.834h-2v-58h2v8h2v4h2v3.559l2 1.441 2 1.442v3.559h2v3.197l3 2.802 3 2.803v5.198h2v20h2v3.141l1.428 1.429 1.429 1.428h1.142v-10h2v-4h2v-4h2v-4h2v-8h2v-8h2v-6h2v-6h2v-8h2v-8h2v-8h2v72h-2v6h1.143l1.429-1.428 1.428-1.429v-5.142h2v-82h2v-18h-2v-10h-2v-12h-2v-8h-2v-6h-2v-10h-2v-8h-2v-6h-2v-4h-2v-4h-2v4h2v8h2v8h2v8h2v8h2v6h2v8h2v4h-1.198l-2.802-3-2.802-3h-3.198v-2h-4v-2h-6v-2h-12v2h-4v2h-4v2h-4v2h-2v-10h2v-12h2v-6h2v-6h2v-4h2v-6h2v-4h2v-8h2v-16h-2v-4h-2v16h-2v6h-2v6h-2v4h-2v-4h2v-6h2v-6h2v-20h-2v10h-2v10h-2v6h-2v6h-2v6h-2v4h-2v4h-2v6h-2v6h-2v6h-2v6h-2v10h-2v16h-2v98h2v6h2v4h2v3.044l5.479 5.478 5.478 5.478h5.043v2h36zm-54-73v-48h2v96h-2zm2-59v-7h2v14h-2zm2-12v-3h2v6h-2zm2-8v-3h2v6h-2zm2-7v-2h2v4h-2zm2-5v-1h2v2h-2zm2-5v-2h2v4h-2zm2-5v-1h2v2h-2zm2-5v-2h2v4h-2zM99.051 264.26l4.473-4.474v-3.053h2v-4h2v-6h2v-98h-2v-16h-2v-10h-2v-6h-2v-6h-2v-6h-2v-6h-2v-4h-2v-4h-2v-6h-2v-6h-2v-6h-2v-10h-2v-8h-2v18h2v6h2v6h2v4h2v6h2v4h2v6h2v4h2v6h2v8h2v8h2v18h2v98h-2v8h-2v4h-2v3.198l-3 2.802-3 2.803v1.198h1.053zM57.524 45.733v-5h2v-8h-1.091l-2.454 2.455-2.455 2.454v9.091h2v4h2zm20 1v-4h2v-6h2v-2h-8v2h2v14h2zm-16-20v-2h1.559l1.441 2 1.442 2h12.701l1.429-1.428 1.428-1.429V17.59l-1.428-1.428-1.429-1.429H62.382l-1.429 1.429-1.429 1.428v11.143h2zm0-5v-1h2v2h-2z"
       id="path16" />
    <path
       style="fill:#094f09"
       d="M49.524 273.733v-1h-4v-2h-3.052l-4.474-4.473-4.474-4.474v-3.053h-2v-6h-2v-6h-2v-98h2v-16h2v-10h2v-6h2v-6h2v-6h2v-6h2v-4h2v-4h2v-6h2v-6h2v-6h2v-10h2V51.174l-2-1.44-2-1.442V36.733h2V33.59l1.429-1.428 1.429-1.429h3.142v-6h-2V13.59l1.429-1.428 1.429-1.429h24.285l1.429 1.429 1.428 1.428v11.143h-2v5.559l2 1.441 2 1.442v3.559h2v11.558l-2 1.441-2 1.442v11.559h2v10h2v6h2v6h2v6h2v4h2v4h2v6h2v6h2v6h2v6h2v10h2v16h2v98h-2v6h-2v6h-2v3.052l-4.473 4.474-4.474 4.473h-3.053v2h-4v2h-40zm38-2v-1h4v-2h-8v2h-30v-2h-5.559l-1.44-2-1.442-2h-2.701l-1.429-1.428-1.429-1.429v-3.143h-2v-4h-2v-6h2v6h2v4h2v4h5.143l1.67-1.67 1.67-1.669-1.242-.414-1.24-.413v-7.834h-2v-58h2v8h2v4h2v3.559l2 1.441 2 1.442v3.559h2v3.197l3 2.802 3 2.803v5.198h2v20h2v3.141l1.428 1.429 1.429 1.428h1.142v-10h2v-4h2v-4h2v-4h2v-8h2v-8h2v-6h2v-6h2v-8h2v-8h2v-8h2v72h-2v6h1.143l1.429-1.428 1.428-1.429v-5.142h2v-82h2v-18h-2v-10h-2v-12h-2v-8h-2v-6h-2v-10h-2v-8h-2v-6h-2v-4h-2v-4h-2v4h2v8h2v8h2v8h2v8h2v6h2v8h2v4h-1.198l-2.802-3-2.802-3h-3.198v-2h-4v-2h-6v-2h-12v2h-4v2h-4v2h-4v2h-2v-10h2v-12h2v-6h2v-6h2v-4h2v-6h2v-4h2v-8h2v-16h-2v-4h-2v16h-2v6h-2v6h-2v4h-2v-4h2v-6h2v-6h2v-20h-2v10h-2v10h-2v6h-2v6h-2v6h-2v4h-2v4h-2v6h-2v6h-2v6h-2v6h-2v10h-2v16h-2v98h2v6h2v4h2v3.044l5.479 5.478 5.478 5.478h5.043v2h36zm-54-73v-48h2v96h-2zm2-59v-7h2v14h-2zm2-12v-3h2v6h-2zm2-8v-3h2v6h-2zm2-7v-2h2v4h-2zm2-5v-1h2v2h-2zm2-5v-2h2v4h-2zm2-5v-1h2v2h-2zm2-5v-2h2v4h-2zM99.051 264.26l4.473-4.474v-3.053h2v-4h2v-6h2v-98h-2v-16h-2v-10h-2v-6h-2v-6h-2v-6h-2v-6h-2v-4h-2v-4h-2v-6h-2v-6h-2v-6h-2v-10h-2v-8h-2v18h2v6h2v6h2v4h2v6h2v4h2v6h2v4h2v6h2v8h2v8h2v18h2v98h-2v8h-2v4h-2v3.198l-3 2.802-3 2.803v1.198h1.053zM57.524 45.733v-5h2v-8h-1.091l-2.454 2.455-2.455 2.454v9.091h2v4h2zm20 1v-4h2v-6h2v-2h-8v2h2v14h2zm4-20v-4h2V15.59l-1.428-1.428-1.429-1.429H60.382l-1.429 1.429-1.429 1.428v7.143h2v8h22z"
       id="path18" />
    <path
       style="fill:#290036"
       d="M49.524 273.733v-1h-4v-2h4v2h40v-2h4v-2h3.067l3.467-3.466 3.466-3.467v-3.067h2v-4h2v4h-2v3.053l-4.473 4.474-4.474 4.473h-3.053v2h-4v2h-40zm-11.75-7.549-4.25-4.404v-3.047h-2v-4h2v4h2v3.157l4 3.843 4 3.843v1.157l-.75-.072-.75-.073-4.25-4.404zm13 1.053-1.25-1.42v-5.084h4v-2h10v-2h12v2h10v2h5.091l2.455 2.455 2.454 2.454v1.091h-4v2l-19.75-.038-19.75-.038-1.25-1.42zm12.75-1.504v-1h-2v-2h4v-2h-6v2h-4v2h-4v2h12zm24 0v-1h-4v-2h-4v-2h-6v2h4v2h-2v2h12zm-58-15v-2h2v4h-2zm78 0v-2h2v4h-2zm-80-53v-49h2v98h-2zm82 0v-49h2v98h-2zm-80-58v-7h2v14h-2zm78 0v-7h2v14h-2zm-76-13v-4h2v8h-2zm74 0v-4h2v8h-2zm-72-8v-2h2v4h-2zm70 0v-2h2v4h-2zm-68-6v-2h2v4h-2zm66 0v-2h2v4h-2zm-64-6v-2h2v4h-2zm62 0v-2h2v4h-2zm-60-6v-2h2v-4h2v-4h2v4h-2v4h-2v4h-2zm58 0v-2h-2v-4h-2v-4h2v4h2v4h2v4h-2zm-52-14v-2h2v4h-2zm46 0v-2h2v4h-2zm-44-6v-2h2v4h-2zm42 0v-2h2v4h-2zm-40-6v-2h2v4h-2zm38 0v-2h2v4h-2zm-36-8v-4h2v8h-2zm34 0v-4h2v8h-2zm-32-10.779v-4.78l-2-1.44-2-1.442V36.733h2V33.59l1.429-1.428 1.429-1.429h3.142v-6h-2V13.59l1.429-1.428 1.429-1.429h24.285l1.429 1.429 1.428 1.428v11.143h-2v5.559l2 1.441 2 1.442v3.559h2v11.558l-2 1.441-2 1.442v9.559h-2v-10h2v-2h-4v2h-4v-4h2v-6h2v-6h1.143l1.429 1.428 1.428 1.428v11.143h2v-12h-2v-4h-32v4h-2v11.559l2 1.441 2 1.442v9.559h-2zm28-29.22v-4h2V15.59l-1.428-1.428-1.429-1.429H60.382l-1.429 1.429-1.429 1.428v7.143h2v8h22zm-18 29v-1h-6v-2h24v2h-6v2h-12zm1.25-6.497-1.25-1.42v-3.084h-2v-10h9.143l1.429 1.429 1.428 1.428v3.143h2v10l-4.75-.038-4.75-.038-1.25-1.42z"
       id="path20" />
    <path
       style="fill:#092909"
       d="M49.524 273.733v-1h-4v-2h4v2h40v-2h4v-2h3.067l3.467-3.466 3.466-3.467v-3.067h2v-4h2v4h-2v3.053l-4.473 4.474-4.474 4.473h-3.053v2h-4v2h-40zm-11.75-7.549-4.25-4.404v-3.047h-2v-4h2v4h2v3.157l4 3.843 4 3.843v1.157l-.75-.072-.75-.073-4.25-4.404zm13 1.053-1.25-1.42v-5.084h4v-2h10v-2h12v2h10v2h5.091l2.455 2.455 2.454 2.454v1.091h-4v2l-19.75-.038-19.75-.038-1.25-1.42zm12.75-1.504v-1h-2v-2h4v-2h-6v2h-4v2h-4v2h12zm24 0v-1h-4v-2h-4v-2h-6v2h4v2h-2v2h12zm-58-15v-2h2v4h-2zm78 0v-2h2v4h-2zm-80-53v-49h2v98h-2zm82 0v-49h2v98h-2zm-80-58v-7h2v14h-2zm78 0v-7h2v14h-2zm-76-13v-4h2v8h-2zm74 0v-4h2v8h-2zm-72-8v-2h2v4h-2zm70 0v-2h2v4h-2zm-68-6v-2h2v4h-2zm66 0v-2h2v4h-2zm-64-6v-2h2v4h-2zm62 0v-2h2v4h-2zm-60-6v-2h2v-4h2v-4h2v4h-2v4h-2v4h-2zm58 0v-2h-2v-4h-2v-4h2v4h2v4h2v4h-2zm-52-14v-2h2v4h-2zm46 0v-2h2v4h-2zm-44-6v-2h2v4h-2zm42 0v-2h2v4h-2zm-40-6v-2h2v4h-2zm38 0v-2h2v4h-2zm-36-8v-4h2v8h-2zm34 0v-4h2v8h-2zm-32-10.779v-4.78l-2-1.44-2-1.442V36.733h2V33.59l1.429-1.428 1.429-1.429h30.285l1.429 1.429 1.428 1.428v3.143h2v11.559l-2 1.441-2 1.442v9.559h-2v-10h2v-2h-4v2h-4v-4h2v-6h2v-6h1.143l1.429 1.428 1.428 1.428v11.143h2v-12h-2v-4h-32v4h-2v11.559l2 1.441 2 1.442v9.559h-2zm10-.22v-1h-6v-2h24v2h-6v2h-12zm1.25-6.497-1.25-1.42v-3.084h-2v-10h9.143l1.429 1.429 1.428 1.428v3.143h2v10l-4.75-.038-4.75-.038-1.25-1.42z"
       id="path22" />
  </g>
</svg>
